<svg width="3776" height="640" viewBox="0 0 3776 640" fill="none" xmlns="http://www.w3.org/2000/svg">
<path d="M0 0H3776V503.028C2250.08 690.595 1426.04 680.651 0 503.028V0Z" fill="black"/>
<path d="M1690.29 320.84C1687.82 315.24 1685.33 309.668 1682.81 304.124C1680.29 298.524 1677.83 292.868 1675.42 287.156C1674.64 285.364 1673.85 283.572 1673.07 281.78C1672.34 279.932 1671.61 278.084 1670.88 276.236C1670.21 274.388 1669.51 272.54 1668.78 270.692C1668.78 271.308 1668.76 271.924 1668.7 272.54C1668.7 273.156 1668.7 273.772 1668.7 274.388C1668.64 276.404 1668.56 278.84 1668.45 281.696C1668.39 284.496 1668.31 287.52 1668.2 290.768C1668.08 293.96 1668 297.18 1667.94 300.428C1667.89 303.62 1667.83 306.644 1667.78 309.5C1667.72 310.732 1667.66 311.964 1667.61 313.196C1667.61 314.428 1667.55 315.576 1667.44 316.64C1668.5 316.584 1669.54 316.528 1670.55 316.472C1671.61 316.416 1672.68 316.36 1673.74 316.304V320H1657.7V317.228C1659.43 317.172 1660.69 316.808 1661.48 316.136C1662.32 315.408 1662.85 314.456 1663.07 313.28C1663.3 312.104 1663.44 310.844 1663.49 309.5L1665.09 271.196C1665.14 270.076 1665.17 268.956 1665.17 267.836C1665.23 266.716 1665.28 265.624 1665.34 264.56C1664.33 264.616 1663.32 264.672 1662.32 264.728C1661.31 264.728 1660.3 264.756 1659.29 264.812V261.2H1672.14L1686.59 294.548C1687.32 296.228 1688.02 297.908 1688.69 299.588C1689.42 301.268 1690.15 302.948 1690.88 304.628C1691.66 306.308 1692.42 308.016 1693.14 309.752H1693.31C1693.93 308.24 1694.66 306.448 1695.5 304.376C1696.34 302.248 1697.04 300.428 1697.6 298.916C1700.06 292.756 1702.61 286.596 1705.24 280.436C1707.93 274.22 1710.56 267.808 1713.14 261.2H1725.57V263.972C1724.17 263.916 1723.02 264.196 1722.12 264.812C1721.23 265.372 1720.58 266.324 1720.19 267.668C1719.8 269.012 1719.66 270.832 1719.77 273.128L1721.96 311.348C1722.07 312.3 1722.12 313.224 1722.12 314.12C1722.12 315.016 1722.12 315.828 1722.12 316.556C1723.13 316.5 1724.14 316.472 1725.15 316.472C1726.21 316.416 1727.25 316.36 1728.26 316.304V320H1709.44V317.228C1711.18 317.172 1712.46 316.752 1713.3 315.968C1714.14 315.184 1714.65 314.064 1714.82 312.608C1715.04 311.152 1715.1 309.36 1714.98 307.232L1713.3 279.512C1713.25 278.616 1713.19 277.72 1713.14 276.824C1713.08 275.928 1713.02 275.032 1712.97 274.136C1712.91 273.24 1712.86 272.344 1712.8 271.448C1712.63 271.84 1712.44 272.26 1712.21 272.708C1712.04 273.156 1711.88 273.632 1711.71 274.136L1692.81 320.84H1690.29ZM1760.34 320C1760.17 319.048 1760.06 318.208 1760.01 317.48C1759.95 316.752 1759.87 315.996 1759.75 315.212C1757.85 317.116 1755.78 318.628 1753.54 319.748C1751.35 320.812 1749.03 321.344 1746.57 321.344C1742.31 321.344 1739.15 320.392 1737.07 318.488C1735 316.528 1733.97 314.148 1733.97 311.348C1733.97 308.772 1734.75 306.56 1736.32 304.712C1737.94 302.808 1740.01 301.268 1742.53 300.092C1745.11 298.86 1747.88 297.964 1750.85 297.404C1753.87 296.788 1756.79 296.508 1759.59 296.564V291.356C1759.59 289.396 1759.42 287.548 1759.08 285.812C1758.75 284.076 1758.02 282.648 1756.9 281.528C1755.78 280.408 1753.99 279.82 1751.52 279.764C1749.9 279.708 1748.22 280.016 1746.48 280.688C1744.8 281.36 1743.57 282.508 1742.79 284.132C1743.23 284.58 1743.51 285.112 1743.63 285.728C1743.79 286.288 1743.88 286.82 1743.88 287.324C1743.88 287.996 1743.6 288.78 1743.04 289.676C1742.48 290.516 1741.5 290.908 1740.1 290.852C1738.92 290.852 1738.03 290.46 1737.41 289.676C1736.79 288.836 1736.49 287.856 1736.49 286.736C1736.49 284.832 1737.19 283.124 1738.59 281.612C1740.04 280.1 1742.03 278.896 1744.55 278C1747.07 277.104 1749.93 276.656 1753.12 276.656C1757.82 276.656 1761.29 277.916 1763.53 280.436C1765.77 282.9 1766.87 286.82 1766.81 292.196C1766.81 294.268 1766.81 296.368 1766.81 298.496C1766.81 300.568 1766.78 302.668 1766.73 304.796C1766.73 306.868 1766.73 308.968 1766.73 311.096C1766.73 311.992 1766.7 312.888 1766.64 313.784C1766.59 314.68 1766.5 315.688 1766.39 316.808C1767.4 316.752 1768.38 316.696 1769.33 316.64C1770.34 316.584 1771.35 316.528 1772.35 316.472V320H1760.34ZM1759.59 299.42C1757.68 299.476 1755.67 299.728 1753.54 300.176C1751.47 300.568 1749.53 301.184 1747.74 302.024C1746.01 302.864 1744.58 303.984 1743.46 305.384C1742.39 306.728 1741.89 308.38 1741.95 310.34C1742.06 312.412 1742.73 313.98 1743.96 315.044C1745.25 316.052 1746.76 316.556 1748.5 316.556C1750.79 316.556 1752.78 316.136 1754.46 315.296C1756.2 314.4 1757.91 313.168 1759.59 311.6C1759.53 310.984 1759.5 310.312 1759.5 309.584C1759.5 308.856 1759.5 308.1 1759.5 307.316C1759.5 307.036 1759.5 306.14 1759.5 304.628C1759.56 303.116 1759.59 301.38 1759.59 299.42ZM1778.12 317.48C1779.85 317.48 1781.06 317.06 1781.73 316.22C1782.4 315.324 1782.79 314.12 1782.91 312.608C1783.02 311.04 1783.07 309.248 1783.07 307.232V288.08C1783.07 287.184 1783.1 286.344 1783.16 285.56C1783.21 284.72 1783.3 283.74 1783.41 282.62C1782.4 282.676 1781.39 282.732 1780.39 282.788C1779.43 282.844 1778.45 282.9 1777.45 282.956V279.428C1779.91 279.428 1781.81 279.316 1783.16 279.092C1784.5 278.868 1785.51 278.588 1786.18 278.252C1786.91 277.916 1787.47 277.552 1787.86 277.16H1790.3V311.096C1790.3 312.216 1790.27 313.224 1790.21 314.12C1790.21 314.96 1790.13 315.856 1789.96 316.808C1790.86 316.752 1791.73 316.724 1792.57 316.724C1793.46 316.668 1794.36 316.612 1795.25 316.556V320H1778.12V317.48ZM1786.27 268.844C1785.09 268.844 1784.05 268.368 1783.16 267.416C1782.26 266.464 1781.81 265.288 1781.81 263.888C1781.81 262.488 1782.26 261.312 1783.16 260.36C1784.11 259.352 1785.17 258.848 1786.35 258.848C1787.64 258.848 1788.7 259.352 1789.54 260.36C1790.44 261.312 1790.89 262.488 1790.89 263.888C1790.89 265.288 1790.41 266.464 1789.46 267.416C1788.56 268.368 1787.5 268.844 1786.27 268.844ZM1801.74 320V317.48C1803.48 317.48 1804.68 317.06 1805.35 316.22C1806.03 315.324 1806.42 314.12 1806.53 312.608C1806.64 311.04 1806.7 309.248 1806.7 307.232L1806.78 288.08C1806.78 287.184 1806.78 286.288 1806.78 285.392C1806.84 284.496 1806.95 283.572 1807.12 282.62C1806.11 282.676 1805.1 282.732 1804.09 282.788C1803.14 282.844 1802.16 282.9 1801.15 282.956V279.428C1803.62 279.428 1805.47 279.316 1806.7 279.092C1807.99 278.868 1808.94 278.588 1809.55 278.252C1810.17 277.916 1810.67 277.552 1811.07 277.16H1813.5C1813.56 277.552 1813.59 278 1813.59 278.504C1813.64 279.008 1813.7 279.568 1813.75 280.184C1813.81 280.8 1813.84 281.5 1813.84 282.284C1815.07 281.22 1816.41 280.268 1817.87 279.428C1819.38 278.588 1820.95 277.916 1822.57 277.412C1824.25 276.908 1825.91 276.656 1827.53 276.656C1832.4 276.656 1835.96 278.196 1838.2 281.276C1840.44 284.3 1841.56 289.032 1841.56 295.472V311.096C1841.56 312.216 1841.53 313.224 1841.47 314.12C1841.47 314.96 1841.39 315.856 1841.22 316.808C1842.12 316.752 1842.99 316.724 1843.83 316.724C1844.72 316.668 1845.62 316.612 1846.51 316.556V320H1829.38V317.48C1831.11 317.48 1832.32 317.06 1832.99 316.22C1833.66 315.324 1834.05 314.12 1834.17 312.608C1834.28 311.04 1834.33 309.248 1834.33 307.232V295.472C1834.28 290.656 1833.47 287.016 1831.9 284.552C1830.39 282.088 1827.98 280.884 1824.67 280.94C1822.66 280.996 1820.67 281.528 1818.71 282.536C1816.81 283.544 1815.21 284.832 1813.92 286.4C1813.98 286.848 1814.01 287.352 1814.01 287.912C1814.01 288.472 1814.01 289.06 1814.01 289.676L1813.92 311.096C1813.92 312.216 1813.89 313.224 1813.84 314.12C1813.84 314.96 1813.75 315.856 1813.59 316.808C1814.48 316.752 1815.35 316.724 1816.19 316.724C1817.09 316.668 1817.98 316.612 1818.88 316.556V320H1801.74ZM1908.77 279.008C1908.6 276.32 1907.96 273.772 1906.84 271.364C1905.72 268.956 1904.09 266.996 1901.96 265.484C1899.84 263.972 1897.12 263.216 1893.82 263.216C1890.34 263.216 1887.68 264.196 1885.84 266.156C1883.99 268.116 1883.06 270.412 1883.06 273.044C1883.06 275.396 1883.74 277.384 1885.08 279.008C1886.42 280.576 1888.16 281.976 1890.29 283.208C1892.47 284.384 1894.77 285.532 1897.18 286.652C1899.3 287.604 1901.43 288.64 1903.56 289.76C1905.69 290.824 1907.62 292.056 1909.36 293.456C1911.09 294.856 1912.46 296.536 1913.47 298.496C1914.54 300.4 1915.07 302.696 1915.07 305.384C1915.07 308.464 1914.28 311.208 1912.72 313.616C1911.2 316.024 1908.99 317.928 1906.08 319.328C1903.17 320.672 1899.61 321.344 1895.41 321.344C1892.89 321.344 1890.29 320.98 1887.6 320.252C1884.91 319.524 1882.53 318.46 1880.46 317.06L1880.88 320.672H1876.51L1876.01 302.78H1879.28C1879.56 307.708 1881.27 311.46 1884.41 314.036C1887.54 316.556 1891.32 317.816 1895.75 317.816C1897.93 317.816 1899.95 317.424 1901.8 316.64C1903.64 315.8 1905.1 314.596 1906.16 313.028C1907.28 311.46 1907.84 309.556 1907.84 307.316C1907.84 304.796 1907.17 302.696 1905.83 301.016C1904.48 299.336 1902.75 297.88 1900.62 296.648C1898.49 295.416 1896.22 294.24 1893.82 293.12C1891.69 292.168 1889.59 291.16 1887.52 290.096C1885.44 289.032 1883.54 287.828 1881.8 286.484C1880.12 285.084 1878.75 283.432 1877.69 281.528C1876.68 279.624 1876.18 277.328 1876.18 274.64C1876.18 273.184 1876.43 271.616 1876.93 269.936C1877.44 268.256 1878.3 266.66 1879.54 265.148C1880.82 263.58 1882.56 262.32 1884.74 261.368C1886.98 260.36 1889.81 259.856 1893.23 259.856C1895.36 259.856 1897.74 260.164 1900.37 260.78C1903.06 261.34 1905.55 262.46 1907.84 264.14L1907.51 260.528H1911.79V279.008H1908.77ZM1937.96 321.344C1936.67 321.344 1935.35 321.148 1934.01 320.756C1932.66 320.42 1931.4 319.72 1930.23 318.656C1929.11 317.592 1928.21 316.052 1927.54 314.036C1926.87 311.964 1926.53 309.248 1926.53 305.888L1926.7 281.528L1920.23 281.612V278C1921.69 277.944 1923.17 277.412 1924.68 276.404C1926.2 275.34 1927.54 273.912 1928.72 272.12C1929.95 270.328 1930.79 268.368 1931.24 266.24H1934.09V278H1948.2V281.276L1934.09 281.444L1933.92 304.796C1933.92 307.316 1934.12 309.472 1934.51 311.264C1934.96 313 1935.66 314.316 1936.61 315.212C1937.56 316.108 1938.8 316.556 1940.31 316.556C1941.88 316.556 1943.33 316.108 1944.68 315.212C1946.08 314.316 1947.31 313.084 1948.37 311.516L1950.64 313.364C1949.41 315.212 1948.18 316.668 1946.94 317.732C1945.77 318.796 1944.62 319.58 1943.5 320.084C1942.38 320.644 1941.34 320.98 1940.39 321.092C1939.44 321.26 1938.63 321.344 1937.96 321.344ZM1980.19 320C1980.02 319.048 1979.91 318.208 1979.85 317.48C1979.79 316.752 1979.71 315.996 1979.6 315.212C1977.69 317.116 1975.62 318.628 1973.38 319.748C1971.2 320.812 1968.87 321.344 1966.41 321.344C1962.15 321.344 1958.99 320.392 1956.92 318.488C1954.85 316.528 1953.81 314.148 1953.81 311.348C1953.81 308.772 1954.59 306.56 1956.16 304.712C1957.79 302.808 1959.86 301.268 1962.38 300.092C1964.95 298.86 1967.73 297.964 1970.69 297.404C1973.72 296.788 1976.63 296.508 1979.43 296.564V291.356C1979.43 289.396 1979.26 287.548 1978.93 285.812C1978.59 284.076 1977.86 282.648 1976.74 281.528C1975.62 280.408 1973.83 279.82 1971.37 279.764C1969.74 279.708 1968.06 280.016 1966.33 280.688C1964.65 281.36 1963.41 282.508 1962.63 284.132C1963.08 284.58 1963.36 285.112 1963.47 285.728C1963.64 286.288 1963.72 286.82 1963.72 287.324C1963.72 287.996 1963.44 288.78 1962.88 289.676C1962.32 290.516 1961.34 290.908 1959.94 290.852C1958.77 290.852 1957.87 290.46 1957.25 289.676C1956.64 288.836 1956.33 287.856 1956.33 286.736C1956.33 284.832 1957.03 283.124 1958.43 281.612C1959.89 280.1 1961.87 278.896 1964.39 278C1966.91 277.104 1969.77 276.656 1972.96 276.656C1977.67 276.656 1981.14 277.916 1983.38 280.436C1985.62 282.9 1986.71 286.82 1986.65 292.196C1986.65 294.268 1986.65 296.368 1986.65 298.496C1986.65 300.568 1986.63 302.668 1986.57 304.796C1986.57 306.868 1986.57 308.968 1986.57 311.096C1986.57 311.992 1986.54 312.888 1986.49 313.784C1986.43 314.68 1986.35 315.688 1986.23 316.808C1987.24 316.752 1988.22 316.696 1989.17 316.64C1990.18 316.584 1991.19 316.528 1992.2 316.472V320H1980.19ZM1979.43 299.42C1977.53 299.476 1975.51 299.728 1973.38 300.176C1971.31 300.568 1969.38 301.184 1967.59 302.024C1965.85 302.864 1964.42 303.984 1963.3 305.384C1962.24 306.728 1961.73 308.38 1961.79 310.34C1961.9 312.412 1962.57 313.98 1963.81 315.044C1965.09 316.052 1966.61 316.556 1968.34 316.556C1970.64 316.556 1972.63 316.136 1974.31 315.296C1976.04 314.4 1977.75 313.168 1979.43 311.6C1979.37 310.984 1979.35 310.312 1979.35 309.584C1979.35 308.856 1979.35 308.1 1979.35 307.316C1979.35 307.036 1979.35 306.14 1979.35 304.628C1979.4 303.116 1979.43 301.38 1979.43 299.42ZM2018.21 342.764C2013.17 342.764 2009.11 342.204 2006.03 341.084C2002.95 339.964 2000.71 338.536 1999.31 336.8C1997.91 335.064 1997.21 333.272 1997.21 331.424C1997.21 329.688 1997.6 328.148 1998.38 326.804C1999.22 325.516 2000.23 324.396 2001.41 323.444C2002.64 322.492 2003.81 321.792 2004.93 321.344C2003.14 320.728 2001.71 319.916 2000.65 318.908C1999.64 317.844 1999.14 316.444 1999.14 314.708C1999.14 312.748 1999.92 310.928 2001.49 309.248C2003.06 307.512 2005.07 306.448 2007.54 306.056C2004.96 304.824 2002.89 303.116 2001.32 300.932C1999.81 298.748 1999.05 296.2 1999.05 293.288C1999.05 289.928 1999.92 287.016 2001.66 284.552C2003.39 282.032 2005.61 280.1 2008.29 278.756C2011.04 277.356 2013.87 276.656 2016.78 276.656C2018.63 276.656 2020.47 276.936 2022.32 277.496C2024.17 278 2025.88 278.756 2027.45 279.764C2028.01 278.196 2028.79 276.796 2029.8 275.564C2030.86 274.332 2032.07 273.38 2033.41 272.708C2034.75 271.98 2036.15 271.616 2037.61 271.616C2039.07 271.616 2040.16 272.008 2040.89 272.792C2041.67 273.52 2042.06 274.528 2042.06 275.816C2042.06 276.208 2041.95 276.684 2041.73 277.244C2041.5 277.804 2041.11 278.28 2040.55 278.672C2040.05 279.064 2039.35 279.26 2038.45 279.26C2037.5 279.26 2036.71 278.98 2036.1 278.42C2035.48 277.86 2035.09 277.16 2034.92 276.32C2033.52 276.544 2032.43 277.216 2031.65 278.336C2030.86 279.4 2030.33 280.576 2030.05 281.864C2031.39 283.096 2032.46 284.58 2033.24 286.316C2034.08 288.052 2034.5 289.9 2034.5 291.86C2034.5 294.996 2033.66 297.796 2031.98 300.26C2030.36 302.724 2028.2 304.656 2025.51 306.056C2022.83 307.4 2019.91 308.072 2016.78 308.072C2015.71 308.072 2014.79 308.016 2014.01 307.904C2013.22 307.736 2012.27 307.652 2011.15 307.652C2009.08 307.652 2007.4 308.156 2006.11 309.164C2004.82 310.172 2004.37 311.376 2004.77 312.776C2005.21 314.12 2006.59 314.988 2008.88 315.38C2011.18 315.716 2014.26 315.968 2018.12 316.136C2022.43 316.304 2026.13 316.808 2029.21 317.648C2032.29 318.488 2034.64 319.776 2036.27 321.512C2037.95 323.304 2038.79 325.712 2038.79 328.736C2038.79 330.976 2038.17 332.964 2036.94 334.7C2035.76 336.492 2034.17 337.976 2032.15 339.152C2030.19 340.328 2027.98 341.224 2025.51 341.84C2023.11 342.456 2020.67 342.764 2018.21 342.764ZM2018.12 339.488C2022.94 339.488 2026.69 338.592 2029.38 336.8C2032.07 335.008 2033.41 332.908 2033.41 330.5C2033.41 328.428 2032.71 326.832 2031.31 325.712C2029.91 324.648 2028.01 323.892 2025.6 323.444C2023.19 323.052 2020.42 322.828 2017.28 322.772C2015.77 322.716 2014.29 322.632 2012.83 322.52C2011.37 322.464 2009.97 322.324 2008.63 322.1C2007.12 323.108 2005.94 324.34 2005.1 325.796C2004.26 327.252 2003.84 328.792 2003.84 330.416C2003.84 333.16 2005.13 335.344 2007.71 336.968C2010.34 338.648 2013.81 339.488 2018.12 339.488ZM2017.03 305.048C2019.1 305.048 2020.81 304.544 2022.15 303.536C2023.55 302.528 2024.59 301.156 2025.26 299.42C2025.99 297.684 2026.35 295.724 2026.35 293.54C2026.35 291.076 2025.99 288.78 2025.26 286.652C2024.53 284.524 2023.44 282.816 2021.99 281.528C2020.59 280.24 2018.79 279.596 2016.61 279.596C2013.59 279.596 2011.23 280.744 2009.55 283.04C2007.93 285.28 2007.12 288.08 2007.12 291.44C2007.12 294.128 2007.51 296.508 2008.29 298.58C2009.08 300.596 2010.2 302.192 2011.65 303.368C2013.17 304.488 2014.96 305.048 2017.03 305.048ZM2064.31 321.344C2060.45 321.344 2056.95 320.448 2053.81 318.656C2050.73 316.808 2048.29 314.232 2046.5 310.928C2044.71 307.568 2043.81 303.62 2043.81 299.084C2043.81 295.164 2044.68 291.496 2046.42 288.08C2048.21 284.664 2050.7 281.92 2053.89 279.848C2057.09 277.72 2060.78 276.656 2064.98 276.656C2067.33 276.656 2069.52 277.048 2071.53 277.832C2073.61 278.56 2075.43 279.708 2076.99 281.276C2078.56 282.788 2079.79 284.72 2080.69 287.072C2081.59 289.368 2082.03 292.084 2082.03 295.22L2052.47 295.724C2052.47 299.98 2052.91 303.732 2053.81 306.98C2054.76 310.172 2056.27 312.664 2058.35 314.456C2060.42 316.192 2063.08 317.06 2066.33 317.06C2068.06 317.06 2069.83 316.752 2071.62 316.136C2073.47 315.52 2075.17 314.68 2076.74 313.616C2078.31 312.552 2079.57 311.376 2080.52 310.088L2082.54 311.768C2081.03 314.12 2079.21 315.996 2077.08 317.396C2074.95 318.796 2072.77 319.804 2070.53 320.42C2068.29 321.036 2066.21 321.344 2064.31 321.344ZM2052.72 292.196H2074.14C2074.14 290.18 2073.83 288.248 2073.21 286.4C2072.65 284.496 2071.7 282.956 2070.36 281.78C2069.01 280.548 2067.25 279.932 2065.07 279.932C2061.82 279.932 2059.1 280.912 2056.92 282.872C2054.79 284.776 2053.39 287.884 2052.72 292.196Z" fill="white"/>
<path d="M1654 330.5H2085.81V334.7H1654V330.5Z" fill="white"/>
</svg>
